<svg aria-hidden="true" style="position: absolute; width: 0; height: 0; overflow: hidden;" version="1.1" xmlns="http://www.w3.org/2000/svg" xmlns:xlink="http://www.w3.org/1999/xlink">
<defs>
<symbol id="icon-arrow" viewBox="0 0 55 32">
<path fill="#4f2ee8" style="fill: var(--color1, #4f2ee8)" d="M24.722 19.049c0.69 0.697 1.648 1.129 2.706 1.129s2.016-0.432 2.706-1.129l0-0 17.445-17.486c0.691-0.696 1.648-1.127 2.706-1.127 2.106 0 3.813 1.707 3.813 3.813 0 1.048-0.423 1.997-1.107 2.686l-17.486 17.486c-2.068 2.066-4.924 3.344-8.078 3.344s-6.010-1.278-8.078-3.344l-17.486-17.486c-0.684-0.689-1.106-1.638-1.106-2.686 0-2.106 1.707-3.813 3.813-3.813 1.058 0 2.015 0.431 2.706 1.127l0 0 17.445 17.486z"></path>
</symbol>
<symbol id="icon-herb" viewBox="0 0 20 32">
<path  style="fill: var(--color1, #fff)" d="M9.005 30.888c-1.738-1.269-2.974-3.137-3.405-5.296l-0.009-0.055h-5.591v-23.117c2.991 1.443 5.153 4.6 5.388 7.876l0.845 6.493-0.407-0.045c-0.893 0-1.676 0.812-1.676 1.608 0 0.752 0.595 1.383 1.379 1.548l1.018 0.226c1.675-3.051 2.63-6.042 2.63-8.973 0-2.646-0.36-5.291-0.422-7.997 0-1.202 0.485-2.3 1.253-3.156 0.783 0.857 1.253 1.954 1.253 3.156 0 2.706-0.423 5.351-0.423 7.997 0 2.93 0.955 5.922 2.631 8.973l1.018-0.226c0.783-0.165 1.378-0.811 1.378-1.548 0-0.811-0.783-1.608-1.675-1.608l-0.423 0.060 0.845-6.493c0.423-3.277 2.398-6.448 5.388-7.876v23.117h-5.576c-0.422 2.18-1.613 4.148-3.414 5.35-0.423 0.286-0.783 0.632-1.018 1.098-0.22-0.466-0.58-0.812-0.987-1.112zM2.647 17.556c0.235-0.857 0.893-1.609 1.738-2.075l-0.658-5.35c-0.246-1.699-0.975-3.195-2.043-4.382l0.007 0.008v11.783h0.956v0.015zM5.466 23.929c0-0.812 0.125-1.548 0.298-2.3l-0.784-0.18c-1.143-0.346-2.036-1.203-2.333-2.3h-0.957v4.78h3.775zM9.178 23.929c0-0.977-0.783-1.834-1.801-1.954-0.173 0.63-0.298 1.262-0.298 1.954h2.099zM9.178 25.552h-1.864c0.298 1.262 0.955 2.42 1.864 3.397v-3.397zM11.808 20.547c-0.72-1.263-1.377-2.585-1.8-3.968-0.423 1.383-1.080 2.705-1.801 3.968 0.72 0.165 1.315 0.631 1.8 1.157 0.486-0.526 1.082-0.992 1.802-1.157zM12.952 23.929c0-0.692-0.125-1.323-0.297-1.954-1.018 0.12-1.801 0.977-1.801 1.954h2.098zM12.717 25.552h-1.863v3.397c0.908-0.992 1.566-2.135 1.863-3.397zM18.34 23.929v-4.78h-0.956c-0.297 1.097-1.206 1.954-2.333 2.3l-0.783 0.18c0.172 0.752 0.297 1.488 0.297 2.3h3.775zM18.34 17.556v-11.8c-1.080 1.203-1.864 2.706-2.036 4.375l-0.658 5.35c0.846 0.466 1.504 1.203 1.738 2.075h0.956z"></path>
</symbol>
<symbol id="icon-bookshelf" viewBox="0 0 176 32">
      <path d="M22.176 8.533c0-4.731-3.497-7.406-9.545-7.406H0v29.417h13.33c6.089 0 9.998-2.921 9.998-8.599 0-4.402-2.633-6.665-5.719-7.2v-.082c2.427-.823 4.567-2.51 4.567-6.13zm-17.28 4.772V5.282h7.858c2.921 0 4.526 1.44 4.526 4.032s-1.317 3.991-4.814 3.991h-7.57zm0 3.662h8.599c3.086 0 4.937 1.687 4.937 4.69 0 2.757-1.275 4.731-5.472 4.731H4.896v-9.422zM35.89 31.161c-6.583 0-10.574-4.567-10.574-11.109S29.307 8.943 35.89 8.943s10.574 4.567 10.574 11.109-3.991 11.109-10.574 11.109zm0-3.538c4.114 0 6.254-3.25 6.254-7.57 0-4.361-2.139-7.57-6.254-7.57s-6.254 3.209-6.254 7.57c0 4.32 2.139 7.57 6.254 7.57zM58.912 31.161c-6.583 0-10.574-4.567-10.574-11.109S52.329 8.943 58.912 8.943s10.574 4.567 10.574 11.109-3.991 11.109-10.574 11.109zm0-3.538c4.114 0 6.254-3.25 6.254-7.57 0-4.361-2.139-7.57-6.254-7.57s-6.254 3.209-6.254 7.57c0 4.32 2.139 7.57 6.254 7.57zM72.472 1.127v29.417h4.32v-7.611l2.921-2.757 6.624 10.368h5.184l-8.846-13.207 7.982-7.817H85.35l-8.558 8.434V1.127h-4.32zM101.935 17.831c-3.045-.699-5.39-.864-5.39-3.003 0-1.481 1.399-2.469 3.991-2.469 3.374 0 4.197 1.687 4.485 3.333h4.197c-.288-3.662-3.003-6.747-8.722-6.747-5.266 0-8.311 2.757-8.311 6.213 0 4.773 4.526 5.431 7.858 6.213 3.086.741 5.595.946 5.595 3.579 0 1.317-1.275 2.798-4.279 2.798-4.443 0-5.431-1.934-5.637-4.197h-4.197c.206 4.443 3.127 7.611 9.915 7.611 5.102 0 8.558-2.51 8.558-6.542 0-5.019-4.197-5.883-8.064-6.789zM124.123 8.944c-3.538 0-5.719 1.646-6.83 3.291h-.082V1.126h-4.32v29.417h4.32V17.748c0-3.127 2.263-5.143 5.431-5.143 3.003 0 4.197 1.81 4.197 4.649v13.289h4.361V16.02c0-4.814-3.086-7.077-7.077-7.077zM144.448 27.623c-3.826 0-6.089-2.921-6.089-6.459h16.128c0-7.488-3.333-12.219-10.121-12.219-6.336 0-10.327 4.279-10.327 11.109 0 6.583 3.991 11.109 10.533 11.109 5.39 0 8.517-3.045 9.586-7.035h-4.32c-.37 1.275-1.81 3.497-5.39 3.497zm-.082-15.264c3.497 0 5.801 2.345 5.801 5.595h-11.808c0-3.25 2.51-5.595 6.007-5.595zM157.531 1.127v29.417h4.361V1.127h-4.361zM176.003 4.665V1.127a15.12 15.12 0 0 0-2.88-.288c-3.456 0-5.349 1.563-5.349 6.007V9.52h-3.003v3.538h3.003v17.486h4.361V13.058h3.867V9.52h-3.867V7.216c0-2.386 1.07-2.674 3.867-2.551z"/>
    </symbol>
    <symbol id="icon-menu-close" viewBox="0 0 32 32">
      <path stroke="" stroke-linecap="round" stroke-linejoin="round" stroke-width="3.429" d="M24 8 8 24M8 8l16 16"/>
    </symbol>
    <symbol id="icon-menu-open" viewBox="0 0 32 32">
      <path  stroke="" stroke-linecap="round" stroke-linejoin="round" stroke-width="2.286" d="M22.667 13.333H4M28 8H4M28 18.667H4M22.667 24H4"/>
    </symbol>
    <symbol id="icon-logo" viewBox="0 0 32 32">
      <path fill="#f6f6f6" d="m0 0 16.343 16.171L32 32V0H0z" style="fill:var(--color1, #f6f6f6)"/>
      <path fill="#f6f6f6" d="M4.457 4.229 16.4 16.058l11.257 11.486h-23.2V4.23z" style="fill:var(--color1, #f6f6f6)"/>
      <path fill="#4f2ee8" d="M27.733 27.618 15.79 15.789 4.533 4.303h23.2v23.314z" style="fill:var(--color2, #4f2ee8)"/>
      <path fill="#4f2ee8" d="m9.257 9.029 13.6 13.6h-13.6v-13.6z" style="fill:var(--color2, #4f2ee8)"/>
      <path fill="#f6f6f6" d="m9.257 9.029 13.6 13.6v-13.6h-13.6z" style="fill:var(--color1, #f6f6f6)"/>
    </symbol>
    <symbol id="icon-untitled" viewBox="0 0 32 32">
      <path fill="#fff" style="fill: var(--color1, #fff)" d="M25.333 9.333h-4v-1.333c0-2.946-2.388-5.334-5.334-5.334s-5.334 2.388-5.334 5.334v0 1.333h-4c-0.736 0-1.333 0.597-1.333 1.333 0 0.001 0 0.001 0 0.002v-0 14.666c0 2.209 1.791 4 4 4v0h13.333c2.209 0 4-1.791 4-4v0-14.666c0-0.736-0.597-1.334-1.333-1.334h-0zM13.333 8c-0.001-0.019-0.001-0.042-0.001-0.065 0-1.473 1.194-2.667 2.667-2.667s2.667 1.194 2.667 2.667c0 0.023-0 0.046-0.001 0.069l0-0.003v1.333h-5.333v-1.333zM24 25.333c0 0 0 0.001 0 0.002 0 0.736-0.597 1.333-1.333 1.333-0.001 0-0.001 0-0.002 0h-13.333c-0.736 0-1.333-0.597-1.333-1.333 0-0.001 0-0.001 0-0.002v0-13.333h2.666v1.333c0 0.737 0.597 1.334 1.334 1.334s1.334-0.597 1.334-1.334v0-1.333h5.333v1.333c0 0.737 0.597 1.334 1.334 1.334s1.334-0.597 1.334-1.334v0-1.333h2.667v13.333z"></path>
    </symbol>
     <symbol id="icon-material-symbols" viewBox="0 0 32 32">
            <path fill="#fff" style="fill: var(--color1, #fff)" d="M4.5 19.6l11.2-11.233c0.133-0.133 0.278-0.228 0.433-0.283s0.322-0.084 0.5-0.084 0.344 0.028 0.5 0.084c0.156 0.055 0.3 0.149 0.433 0.283l11.233 11.233c0.311 0.311 0.467 0.7 0.467 1.167s-0.167 0.867-0.5 1.2c-0.333 0.333-0.722 0.5-1.167 0.5s-0.833-0.167-1.167-0.5l-9.8-9.8-9.8 9.8c-0.311 0.311-0.694 0.467-1.149 0.467s-0.851-0.167-1.184-0.5-0.5-0.722-0.5-1.167c0-0.444 0.167-0.833 0.5-1.167z"></path>
      </symbol>
     <symbol id="icon-user" viewBox="0 0 32 32">
      <path fill="#4f2ee8" style="fill: var(--color1, #4f2ee8)" d="M5.334 29.334c0-5.891 4.775-10.666 10.666-10.666s10.666 4.775 10.666 10.666v0h-21.332zM16 17.334c-0.001 0-0.001 0-0.002 0-4.417 0-7.998-3.581-7.998-7.998 0-0.001 0-0.001 0-0.002v0c0-0.001 0-0.001 0-0.002 0-4.417 3.581-7.998 7.998-7.998 0.001 0 0.001 0 0.002 0h-0c0 0 0.001 0 0.002 0 4.417 0 7.998 3.581 7.998 7.998 0 0.001 0 0.001 0 0.002v-0c0 0.001 0 0.001 0 0.002 0 4.417-3.581 7.998-7.998 7.998-0.001 0-0.001 0-0.002 0h0z"></path>
    </symbol>
   <symbol id="icon-close" viewBox="0 0 32 32">
<path stroke-linejoin="round" stroke-linecap="round" stroke-miterlimit="4" stroke-width="3.3333" d="M24 8l-16 16M8 8l16 16"></path>
</symbol>
</defs>
</svg>
